<svg width="40" height="32" viewBox="0 0 40 32" fill="none" xmlns="http://www.w3.org/2000/svg" xmlns:xlink="http://www.w3.org/1999/xlink">
<path d="M4,32C2.9,32 1.958,31.608 1.175,30.825C0.392,30.042 0,29.1 0,28L0,4C0,2.9 0.392,1.958 1.175,1.175C1.958,0.392 2.9,0 4,0L36,0C37.1,0 38.042,0.392 38.825,1.175C39.608,1.958 40,2.9 40,4L40,28C40,29.1 39.608,30.042 38.825,30.825C38.042,31.608 37.1,32 36,32L4,32ZM20,18L4,8L4,28L36,28L36,8L20,18ZM20,14L36,4L4,4L20,14ZM4,8L4,4L4,28L4,8Z" fill="#4F4F4F"/>
</svg>
