<svg width="62" height="64" viewBox="0 0 62 64" fill="none" xmlns="http://www.w3.org/2000/svg" xmlns:xlink="http://www.w3.org/1999/xlink">
<path d="M13.055,0.626C14.095,-1.358 16.866,-1.358 17.906,0.626L21.906,8.255C22.162,8.743 22.551,9.142 23.026,9.405L30.455,13.513C32.387,14.581 32.387,17.426 30.455,18.494L23.026,22.602C22.551,22.865 22.162,23.265 21.906,23.752L17.906,31.381C16.866,33.365 14.095,33.365 13.055,31.381L9.054,23.752C8.799,23.265 8.41,22.865 7.935,22.602L0.505,18.494C-1.426,17.426 -1.426,14.581 0.505,13.513L7.935,9.405C8.41,9.142 8.799,8.743 9.054,8.255L13.055,0.626ZM20.414,14.386L23.339,16.004L20.414,17.621C18.99,18.408 17.822,19.607 17.055,21.07L15.48,24.073L13.905,21.07C13.139,19.607 11.971,18.408 10.547,17.621L7.622,16.004L10.547,14.386C11.971,13.599 13.139,12.4 13.905,10.937L15.48,7.934L17.055,10.937C17.822,12.4 18.99,13.599 20.414,14.386Z" clip-rule="evenodd" fill-rule="evenodd" fill="#931022"/>
<path d="M54.993,11.316C52.841,9.107 49.353,9.107 47.201,11.316L10.101,49.415C7.949,51.625 7.949,55.207 10.101,57.417L13.997,61.417C16.148,63.627 19.637,63.627 21.789,61.417L58.889,23.319C61.041,21.109 61.041,17.527 58.889,15.317L54.993,11.316ZM54.993,19.318L51.097,15.317L43.167,23.461L47.063,27.462L54.993,19.318ZM13.997,53.416L39.271,27.462L43.167,31.462L17.893,57.417L13.997,53.416Z" clip-rule="evenodd" fill-rule="evenodd" fill="#931022"/>
</svg>
