<svg width="62" height="64" viewBox="0 0 62 64" fill="none" xmlns="http://www.w3.org/2000/svg" xmlns:xlink="http://www.w3.org/1999/xlink">
<path d="M13.054,0.731C14.094,-1.253 16.865,-1.253 17.905,0.731L21.906,8.36C22.161,8.848 22.551,9.247 23.025,9.51L30.455,13.618C32.386,14.686 32.386,17.531 30.455,18.6L23.025,22.708C22.551,22.97 22.161,23.37 21.906,23.857L17.905,31.487C16.865,33.47 14.094,33.47 13.054,31.487L9.054,23.857C8.798,23.37 8.409,22.97 7.934,22.708L0.505,18.6C-1.427,17.531 -1.427,14.686 0.505,13.618L7.934,9.51C8.409,9.247 8.798,8.848 9.054,8.36L13.054,0.731ZM20.413,14.491L23.338,16.109L20.413,17.726C18.989,18.513 17.821,19.713 17.055,21.175L15.48,24.178L13.905,21.175C13.138,19.713 11.97,18.513 10.546,17.726L7.621,16.109L10.546,14.491C11.97,13.704 13.138,12.505 13.905,11.043L15.48,8.039L17.055,11.043C17.821,12.505 18.989,13.704 20.413,14.491Z" clip-rule="evenodd" fill-rule="evenodd" fill="#931022"/>
<path d="M54.992,11.422C52.841,9.212 49.352,9.212 47.201,11.422L10.1,49.52C7.948,51.73 7.948,55.312 10.1,57.522L13.996,61.522C16.148,63.732 19.636,63.732 21.788,61.522L58.888,23.424C61.04,21.214 61.04,17.632 58.888,15.422L54.992,11.422ZM54.992,19.423L51.097,15.422L43.166,23.566L47.062,27.567L54.992,19.423ZM13.996,53.521L39.27,27.567L43.166,31.567L17.892,57.522L13.996,53.521Z" clip-rule="evenodd" fill-rule="evenodd" fill="#931022"/>
</svg>
