<svg width="62" height="64" viewBox="0 0 62 64" fill="none" xmlns="http://www.w3.org/2000/svg" xmlns:xlink="http://www.w3.org/1999/xlink">
<path d="M13.054,0.626C14.094,-1.358 16.865,-1.358 17.905,0.626L21.905,8.255C22.161,8.743 22.55,9.142 23.025,9.405L30.454,13.513C32.386,14.581 32.386,17.426 30.454,18.494L23.025,22.602C22.55,22.865 22.161,23.265 21.905,23.752L17.905,31.381C16.865,33.365 14.094,33.365 13.054,31.381L9.053,23.752C8.798,23.265 8.409,22.865 7.934,22.602L0.504,18.494C-1.427,17.426 -1.427,14.581 0.504,13.513L7.934,9.405C8.409,9.142 8.798,8.743 9.053,8.255L13.054,0.626ZM20.413,14.386L23.338,16.004L20.413,17.621C18.989,18.408 17.821,19.607 17.054,21.07L15.479,24.073L13.904,21.07C13.138,19.607 11.97,18.408 10.546,17.621L7.621,16.004L10.546,14.386C11.97,13.599 13.138,12.4 13.904,10.937L15.479,7.934L17.054,10.937C17.821,12.4 18.989,13.599 20.413,14.386Z" clip-rule="evenodd" fill-rule="evenodd" fill="#931022"/>
<path d="M54.992,11.316C52.84,9.107 49.352,9.107 47.2,11.316L10.1,49.415C7.948,51.625 7.948,55.207 10.1,57.417L13.996,61.417C16.147,63.627 19.636,63.627 21.788,61.417L58.888,23.319C61.04,21.109 61.04,17.527 58.888,15.317L54.992,11.316ZM54.992,19.318L51.096,15.317L43.166,23.461L47.062,27.462L54.992,19.318ZM13.996,53.416L39.27,27.462L43.166,31.462L17.892,57.417L13.996,53.416Z" clip-rule="evenodd" fill-rule="evenodd" fill="#931022"/>
</svg>
