<svg width="62" height="64" viewBox="0 0 62 64" fill="none" xmlns="http://www.w3.org/2000/svg" xmlns:xlink="http://www.w3.org/1999/xlink">
<path d="M13.054,0.679C14.094,-1.305 16.865,-1.305 17.905,0.679L21.905,8.308C22.161,8.795 22.55,9.195 23.025,9.457L30.454,13.566C32.386,14.634 32.386,17.479 30.454,18.547L23.025,22.655C22.55,22.918 22.161,23.317 21.905,23.805L17.905,31.434C16.865,33.418 14.094,33.418 13.054,31.434L9.053,23.805C8.798,23.317 8.409,22.918 7.934,22.655L0.504,18.547C-1.427,17.479 -1.427,14.634 0.504,13.566L7.934,9.457C8.409,9.195 8.798,8.795 9.053,8.308L13.054,0.679ZM20.413,14.439L23.338,16.056L20.413,17.674C18.989,18.461 17.821,19.66 17.054,21.122L15.479,24.126L13.904,21.122C13.138,19.66 11.97,18.461 10.546,17.674L7.621,16.056L10.546,14.439C11.97,13.652 13.138,12.453 13.904,10.99L15.479,7.987L17.054,10.99C17.821,12.453 18.989,13.652 20.413,14.439Z" clip-rule="evenodd" fill-rule="evenodd" fill="#931022"/>
<path d="M54.992,11.369C52.84,9.16 49.352,9.16 47.2,11.369L10.1,49.468C7.948,51.677 7.948,55.26 10.1,57.469L13.996,61.47C16.147,63.68 19.636,63.68 21.788,61.47L58.888,23.371C61.04,21.162 61.04,17.58 58.888,15.37L54.992,11.369ZM54.992,19.371L51.096,15.37L43.166,23.514L47.062,27.514L54.992,19.371ZM13.996,53.469L39.27,27.514L43.166,31.515L17.892,57.469L13.996,53.469Z" clip-rule="evenodd" fill-rule="evenodd" fill="#931022"/>
</svg>
